<svg width="119" height="75" viewBox="0 0 119 75" fill="none" xmlns="http://www.w3.org/2000/svg">
<path d="M20.4782 0.201172V4.4233H13.1117V26.8672H7.77847V4.4233H0.445312V0.201172H20.4782Z" fill="white"/>
<path d="M42.9179 17.4274H27.585C27.6605 19.2911 28.1642 20.6636 29.096 21.5451C29.5601 21.983 30.1058 22.3252 30.7022 22.5521C31.2985 22.7789 31.9338 22.886 32.5715 22.8673C33.8041 22.8673 34.83 22.5651 35.6492 21.9606C36.461 21.3673 37.0208 20.4911 37.2181 19.5051H42.8468C42.5813 20.9394 41.9712 22.2877 41.0691 23.4339C40.1412 24.61 38.9417 25.5434 37.5736 26.1539C35.9577 26.8522 34.2076 27.1856 32.448 27.1302C30.6885 27.0749 28.9628 26.6323 27.3938 25.8339C25.8226 24.9816 24.5355 23.6876 23.6917 22.1117C22.8028 20.5014 22.3584 18.6 22.3584 16.4074C22.3584 14.2149 22.8028 12.3075 23.6917 10.6853C24.5293 9.10678 25.8171 7.81278 27.3916 6.96763C29.0684 6.08989 30.9392 5.64818 32.8315 5.68321C34.8952 5.68321 36.7018 6.11135 38.2514 6.96763C39.7575 7.78253 41.0019 9.00763 41.8402 10.5009C42.9969 12.6148 43.3782 15.0665 42.9179 17.4318V17.4274ZM36.4003 11.1898C35.4253 10.306 34.147 9.83243 32.8315 9.86756C31.4984 9.83074 30.2015 10.3036 29.2049 11.1898C28.2227 12.0786 27.6812 13.3756 27.5805 15.0808H37.7425C37.8181 13.3756 37.3707 12.0786 36.4003 11.1898Z" fill="white"/>
<path d="M59.6128 6.92544C60.8475 7.72596 61.7888 8.90588 62.295 10.2876V5.94324H67.5837V26.8717H62.295V22.4895C61.7863 23.8752 60.8461 25.0608 59.6128 25.8717C58.355 26.7132 56.844 27.1346 55.0795 27.1361C53.4042 27.1604 51.7554 26.7155 50.3197 25.8517C48.8783 24.9613 47.7295 23.6681 47.0153 22.1318C46.2212 20.5022 45.8242 18.5941 45.8242 16.4074C45.8242 14.2208 46.2212 12.3135 47.0153 10.6854C47.7313 9.15081 48.8797 7.85871 50.3197 6.96766C51.7558 6.10482 53.4043 5.65998 55.0795 5.68324C56.844 5.68028 58.355 6.09435 59.6128 6.92544ZM52.7374 11.9498C51.73 13.0342 51.2263 14.5201 51.2263 16.4074C51.2263 18.2948 51.73 19.7763 52.7374 20.8518C53.7463 21.9199 55.0796 22.4547 56.7373 22.4562C57.48 22.4789 58.2191 22.3444 58.9062 22.0614C59.5932 21.7784 60.2127 21.3533 60.7239 20.814C61.7609 19.7192 62.2831 18.2519 62.2905 16.4119C62.2905 14.5497 61.7683 13.0683 60.7239 11.9676C60.2128 11.428 59.5934 11.0026 58.9064 10.7192C58.2193 10.4358 57.4802 10.3008 56.7373 10.3231C55.0781 10.3246 53.7448 10.8668 52.7374 11.9498Z" fill="white"/>
<path d="M105.079 8.00315C106.551 9.57645 107.287 11.8112 107.287 14.7075V26.8716H101.999V15.3163C101.999 13.706 101.59 12.466 100.772 11.5964C99.9542 10.7268 98.8268 10.292 97.3898 10.292C95.9083 10.292 94.7232 10.7579 93.8343 11.6897C92.9455 12.6216 92.5047 13.9815 92.5121 15.7696V26.8805H87.2234V15.3252C87.2234 13.7149 86.8145 12.4749 85.9967 11.6053C85.179 10.7357 84.0516 10.3009 82.6146 10.3009C81.1331 10.3009 79.948 10.7668 79.0591 11.6986C78.1702 12.6305 77.7258 13.9904 77.7258 15.7785V26.8894H72.3926V5.9432H77.7258V9.90978C78.236 8.60154 79.1579 7.49477 80.3524 6.75651C81.6101 5.99815 83.0574 5.61282 84.5256 5.64543C86.0797 5.60902 87.6103 6.02933 88.9278 6.85429C90.208 7.69039 91.1971 8.90318 91.7588 10.3253C92.3857 8.91825 93.4098 7.72483 94.7054 6.89152C96.001 6.05821 97.5116 5.62126 99.052 5.63432C101.597 5.63432 103.606 6.42392 105.079 8.00315Z" fill="white"/>
<path d="M19.6473 61.1175C18.9212 62.3042 17.8732 63.2605 16.6252 63.8752C15.2918 64.5685 13.6674 64.9145 11.7519 64.913C10.0164 64.9433 8.29323 64.6157 6.68983 63.9508C5.2718 63.3621 4.03831 62.4027 3.11878 61.1731C2.21652 59.9405 1.686 58.4754 1.58992 56.951H7.25646C7.35423 57.9782 7.8161 58.9366 8.55865 59.6531C9.29938 60.3716 10.2882 60.7301 11.5252 60.7287C12.6319 60.7287 13.4815 60.4324 14.0741 59.8398C14.3695 59.5388 14.6006 59.1809 14.7534 58.7878C14.9063 58.3947 14.9775 57.9746 14.963 57.5532C14.9906 56.8015 14.7343 56.0669 14.2452 55.4954C13.7408 54.9362 13.1225 54.4915 12.4319 54.191C11.7016 53.8651 10.6942 53.4873 9.40976 53.0577C8.01143 52.6109 6.64778 52.062 5.32984 51.4155C4.25217 50.857 3.32521 50.0467 2.62769 49.0533C1.88696 48.0163 1.5166 46.6689 1.5166 45.0112C1.5166 42.7194 2.34103 40.9128 3.98988 39.5913C5.63873 38.2699 7.82387 37.6084 10.5453 37.6069C13.36 37.6069 15.6074 38.2869 17.2874 39.6469C18.9673 41.0069 19.9184 42.8202 20.1406 45.0868H14.3985C14.2756 44.1856 13.8492 43.3532 13.1897 42.7268C12.5334 42.1091 11.6393 41.8002 10.5075 41.8002C9.5253 41.8002 8.732 42.0587 8.12757 42.5757C7.52313 43.0927 7.2209 43.8416 7.2209 44.8223C7.19589 45.5366 7.44561 46.2332 7.91867 46.7689C8.41779 47.3084 9.02303 47.7389 9.69641 48.0334C10.6519 48.4519 11.6297 48.8176 12.6252 49.1289C14.0479 49.6148 15.4413 50.1824 16.7985 50.8289C17.8963 51.3808 18.8383 52.199 19.5384 53.2088C20.294 54.2666 20.6717 55.6517 20.6717 57.3643C20.6792 58.6854 20.3249 59.9834 19.6473 61.1175Z" fill="white"/>
<path d="M41.8579 44.7446C43.2997 45.6361 44.4491 46.93 45.1645 48.4668C45.9586 50.0964 46.3549 52.0037 46.3534 54.1889C46.3519 56.374 45.9556 58.2821 45.1645 59.9132C44.4497 61.4498 43.3001 62.7431 41.8579 63.6331C40.4224 64.4975 38.7735 64.9425 37.098 64.9175C35.3366 64.9175 33.8322 64.496 32.5848 63.6531C31.3592 62.8376 30.4252 61.653 29.9182 60.271V74.6262H24.585V43.7202H29.9182V48.0646C30.4228 46.6865 31.3578 45.5076 32.5848 44.7024C33.8307 43.8713 35.3351 43.4558 37.098 43.4558C38.7738 43.4333 40.4225 43.8797 41.8579 44.7446ZM31.4515 49.7512C30.4145 50.8475 29.8915 52.3289 29.8826 54.1955C29.8826 56.0355 30.4056 57.5029 31.4515 58.5977C31.9623 59.1369 32.5813 59.5619 33.268 59.8449C33.9547 60.128 34.6935 60.2625 35.4358 60.2398C37.098 60.2398 38.4313 59.705 39.4358 58.6354C40.4402 57.5658 40.9439 56.0844 40.9468 54.1911C40.9468 52.3022 40.4431 50.8163 39.4358 49.7334C38.4284 48.6505 37.0951 48.109 35.4358 48.109C34.6938 48.0859 33.9553 48.2198 33.2686 48.5021C32.582 48.7843 31.9627 49.2085 31.4515 49.7468V49.7512Z" fill="white"/>
<path d="M62.8705 44.7024C64.1052 45.5029 65.0465 46.6828 65.5527 48.0645V43.7202H70.8415V64.6486H65.5371V60.2664C65.0285 61.6521 64.0883 62.8377 62.855 63.6486C61.5972 64.49 60.0862 64.9115 58.3218 64.913C56.6464 64.9373 54.9976 64.4924 53.5619 63.6286C52.1205 62.7383 50.9717 61.445 50.2575 59.9087C49.4634 58.2791 49.0664 56.371 49.0664 54.1844C49.0664 51.9977 49.4634 50.0904 50.2575 48.4623C50.9727 46.9261 52.1212 45.6324 53.5619 44.7401C54.998 43.8773 56.6465 43.4324 58.3218 43.4557C60.0891 43.4557 61.6054 43.8713 62.8705 44.7024ZM55.9818 49.7267C54.9744 50.8111 54.4707 52.297 54.4707 54.1844C54.4707 56.0717 54.9744 57.5532 55.9818 58.6287C56.9892 59.6968 58.3225 60.2316 59.9817 60.2331C60.7244 60.2558 61.4635 60.1213 62.1506 59.8383C62.8376 59.5553 63.4571 59.1302 63.9683 58.5909C65.0127 57.4962 65.5312 56.0288 65.5238 54.1888C65.5238 52.3266 65.0053 50.8452 63.9683 49.7445C63.4572 49.2049 62.8378 48.7795 62.1508 48.4961C61.4637 48.2127 60.7246 48.0777 59.9817 48.1C58.3255 48.1015 56.9922 48.6438 55.9818 49.7267Z" fill="white"/>
<path d="M91.8192 45.6469C93.6192 47.1091 94.7458 49.0986 95.1991 51.6156H89.5704C89.3862 50.5815 88.8336 49.6492 88.0149 48.9912C87.2075 48.3497 86.1875 48.0283 84.9549 48.0268C84.2874 48.0137 83.6251 48.1474 83.0149 48.4185C82.4048 48.6896 81.8616 49.0915 81.4239 49.5956C80.4802 50.6401 80.0076 52.1697 80.0061 54.1844C80.0047 56.1992 80.4772 57.7295 81.4239 58.7755C81.8631 59.277 82.4068 59.6761 83.0169 59.9449C83.6269 60.2136 84.2885 60.3454 84.9549 60.331C86.189 60.331 87.209 60.0102 88.0149 59.3688C88.8342 58.7104 89.3869 57.7771 89.5704 56.7422H95.1991C94.7458 59.2606 93.6192 61.2502 91.8192 62.7109C90.0193 64.1716 87.7712 64.902 85.0749 64.902C83.1804 64.9376 81.3081 64.4894 79.635 63.5998C78.0643 62.7469 76.7774 61.453 75.9329 59.8776C75.044 58.2673 74.5996 56.3659 74.5996 54.1733C74.5996 51.9808 75.044 50.0734 75.9329 48.4512C76.7709 46.8711 78.0595 45.5756 79.635 44.7291C81.3119 43.8514 83.1826 43.4097 85.0749 43.4447C87.7697 43.4521 90.0178 44.1862 91.8192 45.6469Z" fill="white"/>
<path d="M118.47 55.2044H103.137C103.213 57.0695 103.716 58.4421 104.648 59.3221C105.111 59.7619 105.657 60.1061 106.253 60.3349C106.849 60.5637 107.485 60.6726 108.124 60.6554C109.358 60.6554 110.384 60.3532 111.204 59.7488C112.008 59.1559 112.563 58.2843 112.759 57.3044H118.388C118.122 58.7386 117.512 60.0869 116.61 61.2331C115.683 62.4092 114.484 63.3425 113.117 63.9531C111.5 64.6513 109.75 64.9846 107.99 64.9293C106.23 64.874 104.504 64.4314 102.935 63.6331C101.364 62.7802 100.077 61.4863 99.2327 59.911C98.3438 58.3006 97.8994 56.3992 97.8994 54.2066C97.8994 52.0141 98.3438 50.1067 99.2327 48.4845C100.071 46.9044 101.359 45.6089 102.935 44.7624C104.612 43.8847 106.482 43.443 108.375 43.478C110.438 43.478 112.246 43.9061 113.797 44.7624C115.303 45.5773 116.547 46.8024 117.386 48.2957C118.244 49.8604 118.68 51.622 118.65 53.4067C118.644 54.0101 118.584 54.6118 118.47 55.2044ZM111.955 48.9823C110.98 48.0952 109.701 47.6177 108.384 47.649C107.049 47.6152 105.752 48.0921 104.757 48.9823C103.775 49.8712 103.233 51.1682 103.133 52.8733H113.295C113.37 51.1578 112.924 49.8556 111.955 48.9668V48.9823Z" fill="white"/>
</svg>
