<svg width="12" height="4" viewBox="0 0 12 4" fill="none" xmlns="http://www.w3.org/2000/svg">
<path d="M1.99996 0.666656C1.26663 0.666656 0.666626 1.26666 0.666626 1.99999C0.666626 2.73332 1.26663 3.33332 1.99996 3.33332C2.73329 3.33332 3.33329 2.73332 3.33329 1.99999C3.33329 1.26666 2.73329 0.666656 1.99996 0.666656ZM9.99996 0.666656C9.26663 0.666656 8.66663 1.26666 8.66663 1.99999C8.66663 2.73332 9.26663 3.33332 9.99996 3.33332C10.7333 3.33332 11.3333 2.73332 11.3333 1.99999C11.3333 1.26666 10.7333 0.666656 9.99996 0.666656ZM5.99996 0.666656C5.26663 0.666656 4.66663 1.26666 4.66663 1.99999C4.66663 2.73332 5.26663 3.33332 5.99996 3.33332C6.73329 3.33332 7.33329 2.73332 7.33329 1.99999C7.33329 1.26666 6.73329 0.666656 5.99996 0.666656Z" fill="#3E5067"/>
</svg>
